<svg width="40" height="56" viewBox="0 0 40 56" fill="none" xmlns="http://www.w3.org/2000/svg">
<g id="Group 1">
<g id="Vector 28">
<path d="M20 20L5.5 55.5L20 44V20Z" fill="#FDEDE9"/>
<path d="M35.5 55.5L20 20V44L35.5 55.5Z" fill="#FDEDE9"/>
<path d="M20 51.5L35.5 55.5L20 44L5.5 55.5L20 51.5Z" fill="#FDEDE9"/>
<path d="M5.5 55.5L20 20M5.5 55.5L20 51.5L35.5 55.5M5.5 55.5L20 44M20 20L35.5 55.5M20 20V44M35.5 55.5L20 44" stroke="#E94923" stroke-linejoin="bevel"/>
</g>
<path id="Vector 29" d="M20 51.5L35.5 55.5L20 44L5.5 55.5L20 51.5Z" fill="#E94923"/>
<path id="Ellipse 8" d="M11.5147 28.4853C9.83649 26.8071 8.6936 24.6689 8.23058 22.3411C7.76756 20.0133 8.0052 17.6005 8.91345 15.4078C9.8217 13.2151 11.3598 11.3409 13.3332 10.0224C15.3066 8.70379 17.6266 8 20 8C22.3734 8 24.6935 8.70379 26.6668 10.0224C28.6402 11.3409 30.1783 13.2151 31.0866 15.4078C31.9948 17.6005 32.2325 20.0133 31.7694 22.3411C31.3064 24.6689 30.1635 26.8071 28.4853 28.4853" stroke="#E94923"/>
<path id="Ellipse 9" d="M6.56498 33C3.90778 30.3784 2.09821 27.0384 1.36509 23.4022C0.631969 19.766 1.00823 15.9969 2.4463 12.5717C3.88436 9.14647 6.31964 6.21888 9.44417 4.15913C12.5687 2.09938 16.2422 1 20 1C23.7578 1 27.4313 2.09939 30.5558 4.15913C33.6804 6.21888 36.1156 9.14647 37.5537 12.5717C38.9918 15.9969 39.368 19.766 38.6349 23.4022C37.9018 27.0384 36.0922 30.3784 33.435 33" stroke="#E94923"/>
</g>
</svg>
